<svg width="78" height="86" viewBox="0 0 78 86" fill="none" xmlns="http://www.w3.org/2000/svg">
<path fill-rule="evenodd" clip-rule="evenodd" d="M75.1111 37.2667H69.3333C67.7444 37.2667 66.4444 35.9767 66.4444 34.4C66.4444 32.8233 67.7444 31.5333 69.3333 31.5333H75.1111C76.7 31.5333 78 32.8233 78 34.4C78 35.9767 76.7 37.2667 75.1111 37.2667ZM63.7 18.2033C62.5444 19.35 60.8111 19.35 59.6556 18.2033C58.5 17.0567 58.5 15.3367 59.6556 14.19L63.7 10.0333C64.8556 8.88667 66.5889 8.88667 67.7444 10.0333C68.9 11.18 68.9 12.9 67.7444 14.0467L63.7 18.2033ZM59.5111 40.5633C62.1111 43.5733 63.5556 47.4433 63.5556 51.6C63.5556 59.0533 58.7889 65.5033 52 67.7967V61.49C55.4667 59.4833 57.7778 55.7567 57.7778 51.6C57.7778 45.2933 52.5778 40.1333 46.2222 40.1333C43.9111 40.1333 41.7444 40.85 40.0111 41.9967C38.1333 34.4 31.3444 28.6667 23.1111 28.6667C13.5778 28.6667 5.77778 36.4067 5.77778 45.8667C5.77778 50.8833 8.08889 55.47 11.5556 58.6233V65.6467C4.62222 61.7767 0 54.3233 0 45.8667C0 33.2533 10.4 22.9333 23.1111 22.9333C25.4222 22.9333 27.5889 23.22 29.6111 23.9367C32.7889 19.9233 37.7 17.2 43.3333 17.2C52.8667 17.2 60.6667 24.94 60.6667 34.4C60.6667 36.55 60.2333 38.7 59.5111 40.5633ZM43.3333 22.9333C40.1556 22.9333 37.2667 24.2233 35.1 26.23C38.4222 28.2367 41.3111 31.2467 43.1889 34.6867C44.2 34.5433 45.0667 34.4 46.0778 34.4C49.1111 34.4 52 35.26 54.4556 36.55C54.6 35.8333 54.7444 35.1167 54.7444 34.4C54.8889 28.0933 49.6889 22.9333 43.3333 22.9333ZM43.3333 11.4667C41.7444 11.4667 40.4444 10.1767 40.4444 8.6V2.86667C40.4444 1.29 41.7444 0 43.3333 0C44.9222 0 46.2222 1.29 46.2222 2.86667V8.6C46.2222 10.1767 44.9222 11.4667 43.3333 11.4667ZM22.9667 18.2033L18.7778 14.19C17.6222 13.0433 17.6222 11.3233 18.7778 10.1767C19.9333 9.03 21.6667 9.03 22.8222 10.1767L26.8667 14.19C28.0222 15.3367 28.0222 17.0567 26.8667 18.2033C25.8556 19.35 23.9778 19.35 22.9667 18.2033ZM20.2222 51.6C21.8111 51.6 23.1111 52.89 23.1111 54.4667V77.4C23.1111 78.9767 21.8111 80.2667 20.2222 80.2667C18.6333 80.2667 17.3333 78.9767 17.3333 77.4V54.4667C17.3333 52.89 18.6333 51.6 20.2222 51.6ZM31.7778 57.3333C33.3667 57.3333 34.6667 58.6233 34.6667 60.2V83.1333C34.6667 84.71 33.3667 86 31.7778 86C30.1889 86 28.8889 84.71 28.8889 83.1333V60.2C28.8889 58.6233 30.1889 57.3333 31.7778 57.3333ZM43.3333 51.6C44.9222 51.6 46.2222 52.89 46.2222 54.4667V77.4C46.2222 78.9767 44.9222 80.2667 43.3333 80.2667C41.7444 80.2667 40.4444 78.9767 40.4444 77.4V54.4667C40.4444 52.89 41.7444 51.6 43.3333 51.6Z" fill="#FDDF7D"/>
</svg>
