<svg width="48" height="62" viewBox="0 0 48 62" fill="none" xmlns="http://www.w3.org/2000/svg">
<path fill-rule="evenodd" clip-rule="evenodd" d="M13.5689 62C6.10601 62 0 55.8 0 48.2222C0 44.7778 1.35689 41.5056 3.39223 39.0944V10.3333C3.39223 4.65 7.97173 0 13.5689 0C19.1661 0 23.7456 4.65 23.7456 10.3333V39.0944C25.7809 41.5056 27.1378 44.7778 27.1378 48.2222C27.1378 55.8 21.0318 62 13.5689 62ZM16.9611 42.3667V34.9611V17.2222V10.3333C16.9611 8.43889 15.4346 6.88889 13.5689 6.88889C11.7032 6.88889 10.1767 8.43889 10.1767 10.3333V17.2222V34.9611V42.3667C8.14134 43.5722 6.78445 45.8111 6.78445 48.2222C6.78445 52.0111 9.83745 55.1111 13.5689 55.1111C17.3004 55.1111 20.3534 52.0111 20.3534 48.2222C20.3534 45.6389 18.9965 43.4 16.9611 42.3667ZM13.5689 53.3889C10.6855 53.3889 8.48057 51.15 8.48057 48.2222C8.48057 45.9833 9.83745 44.0889 11.8728 43.4V34.4444H15.265V43.4C17.3004 44.0889 18.6572 45.9833 18.6572 48.2222C18.6572 51.15 16.4523 53.3889 13.5689 53.3889Z" fill="#FDDF7D"/>
<path fill-rule="evenodd" clip-rule="evenodd" d="M39.5193 37.7167L45.4557 43.7445C48.8479 47.1889 48.8479 52.5278 45.4557 55.9722C42.0635 59.4167 36.8055 59.4167 33.4133 55.9722C30.0211 52.5278 30.0211 47.1889 33.4133 43.7445L39.5193 37.7167Z" fill="#FDDF7D"/>
</svg>
