<svg width="49" height="54" viewBox="0 0 49 54" fill="none" xmlns="http://www.w3.org/2000/svg">
<path fill-rule="evenodd" clip-rule="evenodd" d="M46.6832 19.575L42.0856 22.05C42.5454 23.625 42.7753 25.2 42.7753 26.775C42.7753 28.35 42.5454 30.15 42.0856 31.5L46.6832 33.975C48.982 35.325 49.6716 38.025 48.2923 40.05C46.9131 42.3 44.1545 42.975 42.0856 41.625L37.4881 39.15C35.1893 41.4 32.2009 43.2 28.9826 43.875V49.5C28.9826 51.975 26.9137 54 24.3851 54C21.8564 54 19.7875 51.975 19.7875 49.5V44.325C16.5692 43.65 13.8107 41.85 11.5119 39.6L6.91437 42.075C4.6156 43.425 1.85707 42.75 0.707683 40.5C-0.671582 38.25 0.0180507 35.55 2.31683 34.425L6.91437 31.95C6.45462 30.375 6.22474 28.8 6.22474 27.225C6.22474 25.65 6.45462 23.85 6.91437 22.5L2.31683 19.575C0.0180507 18.45 -0.671582 15.75 0.707683 13.5C1.85707 11.25 4.6156 10.575 6.91437 11.925L11.5119 14.4C13.8107 12.15 16.7991 10.35 20.0174 9.675V4.5C20.0174 2.025 22.0863 0 24.6149 0C27.1436 0 29.2125 2.025 29.2125 4.5V9.675C32.4308 10.575 35.4192 12.15 37.718 14.4L42.3155 11.925C44.3844 10.575 47.1429 11.25 48.2923 13.5C49.6716 15.75 48.982 18.45 46.6832 19.575ZM24.6149 18C19.5576 18 15.4198 22.05 15.4198 27C15.4198 31.95 19.5576 36 24.6149 36C29.6722 36 33.81 31.95 33.81 27C33.81 22.05 29.6722 18 24.6149 18Z" fill="#FDDF7D"/>
</svg>
