<svg width="70" height="70" viewBox="0 0 70 70" fill="none" xmlns="http://www.w3.org/2000/svg">
<path fill-rule="evenodd" clip-rule="evenodd" d="M57.2727 49.7955V42.7955C61.0909 40.5682 63.6364 36.4318 63.6364 31.8182C63.6364 24.8182 57.9091 19.0909 50.9091 19.0909C48.3636 19.0909 45.9773 19.8864 44.0682 21.1591C42 12.7273 34.5227 6.36364 25.4545 6.36364C14.9545 6.36364 6.36364 14.9545 6.36364 25.4545C6.36364 31.0227 8.90909 36.1136 12.7273 39.6136V47.4091C5.09091 43.1136 0 34.8409 0 25.4545C0 11.4545 11.4545 0 25.4545 0C35 0 43.2727 5.25 47.7273 13.0455C48.6818 12.8864 49.7955 12.7273 50.9091 12.7273C61.4091 12.7273 70 21.3182 70 31.8182C70 40.0909 64.75 47.0909 57.2727 49.7955ZM22.2727 31.8182C24.0227 31.8182 25.4545 33.25 25.4545 35V60.4545C25.4545 62.2045 24.0227 63.6364 22.2727 63.6364C20.5227 63.6364 19.0909 62.2045 19.0909 60.4545V35C19.0909 33.25 20.5227 31.8182 22.2727 31.8182ZM35 38.1818C36.75 38.1818 38.1818 39.6136 38.1818 41.3636V66.8182C38.1818 68.5682 36.75 70 35 70C33.25 70 31.8182 68.5682 31.8182 66.8182V41.3636C31.8182 39.6136 33.25 38.1818 35 38.1818ZM47.7273 31.8182C49.4773 31.8182 50.9091 33.25 50.9091 35V60.4545C50.9091 62.2045 49.4773 63.6364 47.7273 63.6364C45.9773 63.6364 44.5455 62.2045 44.5455 60.4545V35C44.5455 33.25 45.9773 31.8182 47.7273 31.8182Z" fill="#FDDF7D"/>
</svg>
