<svg width="14" height="31" viewBox="0 0 14 31" fill="none" xmlns="http://www.w3.org/2000/svg">
<path fill-rule="evenodd" clip-rule="evenodd" d="M6.78445 31C3.053 31 0 27.9 0 24.1111C0 22.3889 0.678445 20.7528 1.69611 19.5472V5.16667C1.69611 2.325 3.98587 0 6.78445 0C9.58304 0 11.8728 2.325 11.8728 5.16667V19.5472C12.8905 20.7528 13.5689 22.3889 13.5689 24.1111C13.5689 27.9 10.5159 31 6.78445 31ZM8.48057 21.1833V17.4806V8.61111V5.16667C8.48057 4.21944 7.71731 3.44444 6.78445 3.44444C5.85159 3.44444 5.08834 4.21944 5.08834 5.16667V8.61111V17.4806V21.1833C4.07067 21.7861 3.39223 22.9056 3.39223 24.1111C3.39223 26.0056 4.91873 27.5556 6.78445 27.5556C8.65018 27.5556 10.1767 26.0056 10.1767 24.1111C10.1767 22.8194 9.49823 21.7 8.48057 21.1833ZM6.78445 26.6944C5.34276 26.6944 4.24028 25.575 4.24028 24.1111C4.24028 22.9917 4.91873 22.0444 5.9364 21.7V17.2222H7.63251V21.7C8.65018 22.0444 9.32862 22.9917 9.32862 24.1111C9.32862 25.575 8.22615 26.6944 6.78445 26.6944Z" fill="#FDDF7D"/>
</svg>
