<svg width="74" height="66" viewBox="0 0 74 66" fill="none" xmlns="http://www.w3.org/2000/svg">
<g id="Group">
<path id="Vector" fill-rule="evenodd" clip-rule="evenodd" d="M66.737 49.4656L65.7778 49.6033H61.6667C60.1593 49.6033 58.9259 48.3633 58.9259 46.8476C58.9259 45.3319 60.1593 44.0919 61.6667 44.0919H65.7778C67.2852 44.0919 68.5185 42.8518 68.5185 41.3361C68.5185 39.8205 67.2852 38.5804 65.7778 38.5804C64.2704 38.5804 63.037 37.3403 63.037 35.8246C63.037 34.309 64.2704 33.0689 65.7778 33.0689C65.9148 33.0689 66.1889 33.0689 66.3259 33.0689C70.5741 33.3445 74 36.9269 74 41.3361C74 45.6075 70.8482 49.0522 66.737 49.4656ZM52.0741 33.0689C50.5667 33.0689 49.3333 31.8288 49.3333 30.3132C49.3333 28.7975 50.5667 27.5574 52.0741 27.5574C52.2111 27.5574 52.4852 27.5574 52.6222 27.5574C56.8704 27.833 60.2963 31.4154 60.2963 35.8246C60.2963 40.096 57.1444 43.5407 53.1704 43.9541V44.0919H52.0741H41.1111C35.6296 44.0919 25.4889 44.0919 21.9259 44.0919C20.4185 44.0919 19.1852 45.3319 19.1852 46.8476C19.1852 48.3633 20.4185 49.6033 21.9259 49.6033H52.0741H53.1704C57.2815 50.1545 60.2963 53.5992 60.2963 57.7328C60.2963 62.142 56.8704 65.5866 52.6222 66C52.4852 66 52.2111 66 52.0741 66C50.5667 66 49.3333 64.7599 49.3333 63.2443C49.3333 61.7286 50.5667 60.4885 52.0741 60.4885C53.5815 60.4885 54.8148 59.2484 54.8148 57.7328C54.8148 56.2171 53.5815 54.977 52.0741 54.977H21.9259H20.8296V54.8392C16.7185 54.2881 13.7037 50.8434 13.7037 46.7098C13.7037 45.1942 14.1148 43.9541 14.8 42.714C6.16667 39.8205 0 31.691 0 22.0459C0 9.92067 9.86667 0 21.9259 0C30.1481 0 37.2741 4.54697 41.1111 11.2985C41.9333 11.1608 42.8926 11.023 43.8519 11.023C51.937 11.023 58.6519 16.9478 60.0222 24.6639C58.1037 23.286 55.9111 22.4593 53.4444 22.1837C51.5259 18.8768 47.963 16.6722 43.9889 16.6722C41.7963 16.6722 39.7407 17.3612 38.0963 18.4635C36.1778 11.023 29.737 5.51148 21.9259 5.51148C12.8815 5.51148 5.48148 12.952 5.48148 22.0459C5.48148 31.1399 12.8815 38.5804 21.9259 38.5804C25.4889 38.5804 33.163 38.5804 38.6444 38.5804H52.0741C53.5815 38.5804 54.8148 37.3403 54.8148 35.8246C54.8148 34.309 53.5815 33.0689 52.0741 33.0689Z" fill="#FDDF7D"/>
</g>
</svg>
