<svg width="136" height="86" viewBox="0 0 136 86" fill="none" xmlns="http://www.w3.org/2000/svg">
<path id="Vector" fill-rule="evenodd" clip-rule="evenodd" d="M117.455 49.1429H108.182C104.782 49.1429 102 46.3786 102 43C102 39.6214 104.782 36.8571 108.182 36.8571H117.455C120.855 36.8571 123.636 34.0929 123.636 30.7143C123.636 27.3357 120.855 24.5714 117.455 24.5714C114.055 24.5714 111.273 21.8071 111.273 18.4286C111.273 15.05 114.055 12.2857 117.455 12.2857C117.764 12.2857 118.382 12.2857 118.691 12.2857C128.273 12.9 136 20.8857 136 30.7143C136 40.85 127.655 49.1429 117.455 49.1429ZM86.5455 36.8571H80.3636H58.7273H18.5455C15.1455 36.8571 12.3636 39.6214 12.3636 43C12.3636 46.3786 15.1455 49.1429 18.5455 49.1429H24.7273H37.0909H46.3636H58.7273H68H80.3636H86.5455C96.7455 49.1429 105.091 57.4357 105.091 67.5714C105.091 77.4 97.3636 85.0786 87.7818 86C87.4727 86 86.8545 86 86.5455 86C83.1455 86 80.3636 83.2357 80.3636 79.8571C80.3636 76.4786 83.1455 73.7143 86.5455 73.7143C89.9455 73.7143 92.7273 70.95 92.7273 67.5714C92.7273 64.1929 89.9455 61.4286 86.5455 61.4286H80.3636H68H58.7273H46.3636H37.0909H24.7273H18.5455C8.34546 61.4286 0 53.1357 0 43C0 33.1714 7.72727 25.4929 17.3091 24.5714C17.6182 24.5714 18.2364 24.5714 18.5455 24.5714H58.7273H80.3636H86.5455C89.9455 24.5714 92.7273 21.8071 92.7273 18.4286C92.7273 15.05 89.9455 12.2857 86.5455 12.2857C83.1455 12.2857 80.3636 9.52143 80.3636 6.14286C80.3636 2.76429 83.1455 0 86.5455 0C86.8545 0 87.4727 0 87.7818 0C97.3636 0.921429 105.091 8.6 105.091 18.4286C105.091 28.5643 96.7455 36.8571 86.5455 36.8571Z" fill="#FDDF7D"/>
</svg>
